<?xml version="1.0" standalone="no"?>
<!DOCTYPE svg PUBLIC "-//W3C//DTD SVG 20010904//EN"
 "http://www.w3.org/TR/2001/REC-SVG-20010904/DTD/svg10.dtd">
<svg version="1.0" xmlns="http://www.w3.org/2000/svg"
 width="1536.000000pt" height="1024.000000pt" viewBox="0 0 1536.000000 1024.000000"
 preserveAspectRatio="xMidYMid meet">

<g transform="translate(0.000000,1024.000000) scale(0.100000,-0.100000)"
fill="#000000" stroke="none">
<path d="M7673 8823 c9 -2 25 -2 35 0 9 3 1 5 -18 5 -19 0 -27 -2 -17 -5z"/>
<path d="M7738 8813 c7 -3 16 -2 19 1 4 3 -2 6 -13 5 -11 0 -14 -3 -6 -6z"/>
<path d="M7778 8803 c7 -3 16 -2 19 1 4 3 -2 6 -13 5 -11 0 -14 -3 -6 -6z"/>
<path d="M8028 8733 c7 -3 16 -2 19 1 4 3 -2 6 -13 5 -11 0 -14 -3 -6 -6z"/>
<path d="M8175 8690 c11 -5 27 -9 35 -9 9 0 8 4 -5 9 -11 5 -27 9 -35 9 -9 0
-8 -4 5 -9z"/>
<path d="M8238 8673 c7 -3 16 -2 19 1 4 3 -2 6 -13 5 -11 0 -14 -3 -6 -6z"/>
<path d="M8308 8653 c7 -3 16 -2 19 1 4 3 -2 6 -13 5 -11 0 -14 -3 -6 -6z"/>
<path d="M8555 8580 c11 -5 27 -9 35 -9 9 0 8 4 -5 9 -11 5 -27 9 -35 9 -9 0
-8 -4 5 -9z"/>
<path d="M8635 8556 c17 -8 25 -15 19 -15 -18 -2 -12 -35 9 -53 24 -22 27 -22
52 -4 37 25 86 24 185 -5 52 -15 91 -28 85 -28 -14 -1 -11 -67 5 -86 7 -8 21
-15 31 -15 18 0 73 43 65 51 -10 10 92 1 127 -10 21 -7 40 -11 43 -8 2 2 -103
35 -233 72 -131 37 -263 75 -293 85 -30 10 -71 20 -90 24 l-35 6 30 -14z m142
-42 c-3 -3 -12 -4 -19 -1 -8 3 -5 6 6 6 11 1 17 -2 13 -5z"/>
<path d="M7720 8534 c25 -7 50 -13 55 -13 18 1 -59 27 -80 28 -11 0 0 -7 25
-15z"/>
<path d="M7798 8513 c7 -3 16 -2 19 1 4 3 -2 6 -13 5 -11 0 -14 -3 -6 -6z"/>
<path d="M7860 8496 c19 -8 42 -15 50 -15 26 -1 -10 16 -50 23 l-35 6 35 -14z"/>
<path d="M7945 8470 c11 -5 27 -9 35 -9 9 0 8 4 -5 9 -11 5 -27 9 -35 9 -9 0
-8 -4 5 -9z"/>
<path d="M8015 8450 c11 -5 27 -9 35 -9 9 0 8 4 -5 9 -11 5 -27 9 -35 9 -9 0
-8 -4 5 -9z"/>
<path d="M8085 8430 c11 -5 27 -9 35 -9 9 0 8 4 -5 9 -11 5 -27 9 -35 9 -9 0
-8 -4 5 -9z"/>
<path d="M8335 8359 c33 -10 74 -21 90 -24 30 -5 30 -5 -3 8 -18 7 -31 15 -27
18 3 4 -6 4 -21 1 -15 -3 -25 -1 -22 4 3 5 -13 10 -36 10 -41 1 -40 1 19 -17z"/>
<path d="M9278 8373 c7 -3 16 -2 19 1 4 3 -2 6 -13 5 -11 0 -14 -3 -6 -6z"/>
<path d="M8498 8313 c7 -3 16 -2 19 1 4 3 -2 6 -13 5 -11 0 -14 -3 -6 -6z"/>
<path d="M8560 8296 c20 -8 51 -16 70 -19 19 -4 8 2 -25 13 -67 22 -100 26
-45 6z"/>
<path d="M8678 8263 c7 -3 16 -2 19 1 4 3 -2 6 -13 5 -11 0 -14 -3 -6 -6z"/>
<path d="M8718 8253 c7 -3 16 -2 19 1 4 3 -2 6 -13 5 -11 0 -14 -3 -6 -6z"/>
<path d="M8795 8230 c11 -5 27 -9 35 -9 9 0 8 4 -5 9 -11 5 -27 9 -35 9 -9 0
-8 -4 5 -9z"/>
<path d="M8998 8233 c7 -3 16 -2 19 1 4 3 -2 6 -13 5 -11 0 -14 -3 -6 -6z"/>
<path d="M8865 8210 c11 -5 27 -9 35 -9 9 0 8 4 -5 9 -11 5 -27 9 -35 9 -9 0
-8 -4 5 -9z"/>
<path d="M8985 8195 c17 -8 21 -13 10 -10 -65 14 -73 12 -20 -5 33 -11 67 -18
75 -16 11 3 10 4 -2 5 -11 1 -18 9 -18 21 0 17 -7 20 -37 20 l-38 -1 30 -14z"/>
<path d="M9613 8033 c9 -2 23 -2 30 0 6 3 -1 5 -18 5 -16 0 -22 -2 -12 -5z"/>
<path d="M9823 7940 c0 -25 2 -35 4 -22 2 12 2 32 0 45 -2 12 -4 2 -4 -23z"/>
<path d="M9709 7663 c-13 -16 -12 -17 4 -4 9 7 17 15 17 17 0 8 -8 3 -21 -13z"/>
<path d="M9681 7627 c-21 -26 -122 -68 -199 -83 l-78 -16 -13 -162 c-21 -272
-49 -400 -157 -729 -26 -76 -44 -141 -41 -144 3 -3 71 7 151 22 109 21 147 32
150 44 3 9 16 70 30 136 35 168 88 395 131 560 28 108 38 168 42 263 3 67 4
122 1 122 -3 0 -11 -6 -17 -13z"/>
<path d="M8435 7535 c-22 -8 -42 -15 -44 -15 -6 0 -420 -400 -787 -762 -122
-120 -225 -218 -230 -218 -5 0 -101 93 -214 206 -186 186 -253 244 -267 231
-2 -3 6 -8 19 -12 27 -9 190 -164 183 -175 -3 -4 2 -13 10 -20 8 -7 15 -20 15
-30 0 -9 9 -25 20 -35 17 -16 18 -20 5 -44 -14 -28 -129 -141 -142 -141 -5 0
-20 -11 -34 -24 -35 -32 -141 -51 -180 -32 -17 8 -29 10 -31 4 -2 -5 -41 29
-86 76 -45 47 -82 83 -82 79 0 -14 224 -232 233 -226 6 3 7 2 4 -4 -9 -15 391
-408 443 -434 32 -16 63 -22 107 -23 121 0 124 3 773 639 395 388 587 583 600
611 28 57 27 159 -1 219 -53 113 -196 172 -314 130z m-1289 -787 l29 -33 -32
29 c-31 28 -38 36 -30 36 2 0 16 -15 33 -32z m-356 -313 c13 -14 21 -25 18
-25 -2 0 -15 11 -28 25 -13 14 -21 25 -18 25 2 0 15 -11 28 -25z"/>
<path d="M9338 7543 c7 -3 16 -2 19 1 4 3 -2 6 -13 5 -11 0 -14 -3 -6 -6z"/>
<path d="M9842 7326 c-39 -45 -67 -120 -91 -253 -23 -118 -64 -445 -81 -643
-6 -69 -18 -149 -26 -178 -18 -61 -78 -154 -198 -303 -178 -224 -326 -358
-458 -418 -93 -43 -238 -80 -238 -62 0 5 25 27 55 50 248 187 565 536 672 738
23 44 25 55 16 76 -19 42 -60 62 -123 61 -82 -1 -157 -45 -298 -176 -311 -287
-397 -359 -556 -467 -447 -303 -655 -585 -737 -1000 -16 -85 -22 -169 -29
-416 -5 -170 -7 -312 -4 -314 9 -9 709 421 939 577 807 548 1156 961 1264
1498 36 178 43 350 31 804 -13 460 -13 460 -74 460 -26 0 -41 -8 -64 -34z"/>
<path d="M6748 6983 c7 -3 16 -2 19 1 4 3 -2 6 -13 5 -11 0 -14 -3 -6 -6z"/>
<path d="M6858 6983 c7 -3 16 -2 19 1 4 3 -2 6 -13 5 -11 0 -14 -3 -6 -6z"/>
<path d="M6635 6918 l-40 -43 43 40 c39 36 47 45 39 45 -2 0 -21 -19 -42 -42z"/>
<path d="M6563 6745 c0 -27 2 -38 4 -22 2 15 2 37 0 50 -2 12 -4 0 -4 -28z"/>
<path d="M6571 6674 c0 -11 3 -14 6 -6 3 7 2 16 -1 19 -3 4 -6 -2 -5 -13z"/>
<path d="M7375 5211 c9 -19 11 -32 5 -36 -6 -4 -7 -12 -3 -18 16 -25 15 -103
-1 -116 -9 -8 -16 -19 -16 -26 0 -33 -110 -125 -154 -128 -11 -1 -28 -9 -37
-18 -10 -10 -34 -17 -65 -17 -27 -1 -50 -6 -52 -12 -2 -5 -16 -10 -32 -10 -16
0 -58 -16 -95 -35 -73 -39 -148 -53 -173 -33 -9 7 -13 8 -10 3 4 -7 -16 -12
-59 -13 -38 -2 -79 -10 -97 -20 -41 -22 -66 -23 -96 -6 -20 12 -19 10 5 -10
17 -15 36 -24 42 -21 7 2 12 -1 10 -7 -2 -13 201 -153 449 -309 194 -122 566
-346 590 -356 16 -6 16 13 10 248 -8 297 -19 433 -46 546 -24 103 -79 245 -91
238 -5 -4 -6 2 -2 11 4 12 3 15 -5 10 -8 -5 -10 -2 -6 8 7 19 -26 77 -39 69
-6 -3 -7 -1 -3 6 4 6 -2 27 -14 46 -26 43 -36 46 -15 6z"/>
<path d="M6210 4936 c0 -2 8 -10 18 -17 15 -13 16 -12 3 4 -13 16 -21 21 -21
13z"/>
<path d="M6250 4907 c0 -3 18 -20 40 -37 22 -17 40 -29 40 -27 0 3 -18 20 -40
37 -22 17 -40 29 -40 27z"/>
<path d="M6350 4826 c0 -2 8 -10 18 -17 15 -13 16 -12 3 4 -13 16 -21 21 -21
13z"/>
<path d="M6430 4766 c0 -2 8 -10 18 -17 15 -13 16 -12 3 4 -13 16 -21 21 -21
13z"/>
<path d="M4860 2660 l0 -520 115 0 115 0 0 210 0 210 240 0 240 0 0 -210 0
-210 115 0 115 0 0 520 0 520 -115 0 -115 0 0 -215 0 -215 -240 0 -240 0 0
215 0 215 -115 0 -115 0 0 -520z"/>
<path d="M6422 3083 c-23 -54 -62 -145 -87 -203 -78 -176 -315 -731 -315 -736
0 -2 53 -4 118 -4 l119 0 43 110 43 110 242 0 242 0 28 -67 c15 -38 36 -87 46
-110 l18 -43 120 0 120 0 -43 103 c-49 113 -191 440 -283 647 -33 74 -74 170
-93 213 l-34 77 -121 0 -121 0 -42 -97z m254 -348 l82 -195 -169 0 c-93 0
-169 3 -169 6 0 6 149 374 157 387 3 5 8 6 11 2 3 -3 43 -93 88 -200z"/>
<path d="M7120 3175 c0 -4 243 -576 381 -895 l58 -135 129 -3 128 -3 27 63
c14 35 56 133 92 218 37 85 93 218 125 295 32 77 90 213 128 303 l70 162 -117
0 -118 0 -63 -152 c-86 -209 -251 -600 -260 -616 -4 -9 -30 42 -69 135 -130
308 -224 530 -247 581 l-23 52 -120 0 c-67 0 -121 -2 -121 -5z"/>
<path d="M8467 3173 c-4 -3 -7 -237 -7 -520 l0 -513 400 0 400 0 0 90 0 90
-285 0 -285 0 0 125 0 125 240 0 240 0 0 90 0 90 -240 0 -240 0 0 120 0 120
280 0 280 0 0 95 0 95 -388 0 c-214 0 -392 -3 -395 -7z"/>
<path d="M9540 2660 l0 -520 110 0 110 0 0 326 c0 186 4 324 9 322 5 -1 78
-90 162 -197 85 -106 199 -250 254 -320 l100 -126 103 -3 102 -3 0 521 0 520
-110 0 -110 0 -2 -332 -3 -332 -210 264 c-116 146 -235 295 -264 333 l-53 67
-99 0 -99 0 0 -520z"/>
</g>
</svg>
