<?xml version="1.0" encoding="UTF-8"?>
<svg version="1.1" xmlns="http://www.w3.org/2000/svg" width="684" height="750">
<path d="M0 0 C225.72 0 451.44 0 684 0 C684 247.5 684 495 684 750 C458.28 750 232.56 750 0 750 C0 502.5 0 255 0 0 Z " fill="#FCFCFD" transform="translate(0,0)"/>
<path d="M0 0 C2.109375 1.48828125 2.109375 1.48828125 4 4 C4.45889076 7.00620271 4.6514999 9.66831086 4.6875 12.6875 C4.71384521 13.62102295 4.74019043 14.5545459 4.76733398 15.51635742 C4.82641974 17.71349118 4.87614873 19.91088705 4.91894531 22.10839844 C5.01134214 26.54455925 5.14158848 30.97893788 5.2734375 35.4140625 C7.12410184 99.3050568 7.12410184 99.3050568 4 120 C3.83854492 121.16136475 3.83854492 121.16136475 3.67382812 122.34619141 C0.75699525 142.52919177 -6.68543056 162.99789298 -18 180 C-18.45133301 180.67853027 -18.90266602 181.35706055 -19.36767578 182.05615234 C-25.33788265 190.95335605 -31.62642361 199.20714181 -39 207 C-40.06765617 208.24559887 -41.13027688 209.49553377 -42.1875 210.75 C-50.14952084 219.85736955 -58.83346807 228.38360863 -68.32421875 235.8828125 C-71.08619159 238.06819831 -73.75823928 240.33919715 -76.4375 242.625 C-94.92670684 258.04863887 -114.87839195 271.80575869 -135 285 C-135.93320068 285.61512451 -135.93320068 285.61512451 -136.88525391 286.24267578 C-155.92857712 298.78126968 -175.46369698 310.54360659 -195.0625 322.1875 C-195.74490753 322.59323242 -196.42731506 322.99896484 -197.13040161 323.41699219 C-204.36358991 327.71413911 -211.60523664 331.9843421 -219 336 C-219.42284495 281.04316662 -217.96937792 233.50168995 -179 191 C-178.04867187 189.95972656 -178.04867187 189.95972656 -177.078125 188.8984375 C-166.29864067 177.65697527 -153.02148087 168.59814513 -140.0625 160.0625 C-126.96567387 151.39921923 -115.40538512 141.83320576 -104.07470703 130.98193359 C-98.66976875 125.81868471 -93.19979275 120.72397727 -87.73339844 115.62597656 C-86.20994278 114.19693224 -84.70139151 112.75203362 -83.1953125 111.3046875 C-75.14207005 103.71457082 -65.86806542 96.61339554 -54.42578125 96.70703125 C-50.52061377 97.17866983 -47.21130031 98.75536662 -44 101 C-42.55089466 103.89821069 -42.67872449 105.7645666 -43 109 C-44.16374057 111.68292395 -45.70449937 114.06309308 -47.3125 116.5 C-47.98430298 117.54341553 -47.98430298 117.54341553 -48.66967773 118.60791016 C-55.26385782 128.67349342 -62.81777725 137.92921026 -70.9609375 146.77734375 C-72.81250295 148.79562103 -74.59833 150.85349135 -76.375 152.9375 C-83.41413793 160.98222906 -91.00407464 168.2068195 -99.359375 174.8671875 C-102.69198819 177.55891354 -105.86655395 180.4054417 -109.05078125 183.26953125 C-111.30092795 185.26715647 -113.62092249 187.15813354 -116 189 C-108.72829455 188.52316686 -102.71401042 186.8022864 -96 184 C-95.19820313 183.67386719 -94.39640625 183.34773437 -93.5703125 183.01171875 C-67.88194133 171.43089568 -39.71587282 138.39868333 -29.83984375 112.42578125 C-28.69599424 109.12191825 -27.83237019 106.18783824 -27.4909668 102.71337891 C-27.40369324 101.84520538 -27.31641968 100.97703186 -27.22650146 100.08255005 C-27.08924652 98.66883621 -27.08924652 98.66883621 -26.94921875 97.2265625 C-26.74558228 95.19724344 -26.54171573 93.16794746 -26.33764648 91.13867188 C-26.23169159 90.07447021 -26.12573669 89.01026855 -26.01657104 87.91381836 C-18.51494517 12.94069243 -18.51494517 12.94069243 -7.5 1.375 C-4.61637283 -0.21099494 -3.2291429 -0.66238829 0 0 Z " fill="#2C60AA" transform="translate(569,173)"/>
<path d="M0 0 C5.70720689 2.3294722 8.69184751 6.9392656 11.1875 12.4375 C19.26982219 35.0214373 21.01173472 61.74719862 22.8359375 85.55078125 C22.89444382 86.29112106 22.95295013 87.03146088 23.01322937 87.79423523 C23.28452677 91.26769361 23.52735362 94.73664276 23.72290039 98.21557617 C24.62484484 110.70980399 28.82912631 121.47732168 36.6875 131.25 C37.19821045 131.90806641 37.7089209 132.56613281 38.23510742 133.24414062 C43.21924303 139.60213291 48.46385912 145.7433331 53.79931641 151.80761719 C54.86126143 153.02021309 55.90717545 154.24682196 56.94921875 155.4765625 C69.22694161 169.92443976 81.93970769 180.8219455 100.0625 187.25 C100.75214844 187.49492187 101.44179687 187.73984375 102.15234375 187.9921875 C105.87268201 189.18074195 109.18608816 189.30938793 113.0625 189.25 C112.50304687 188.81171875 111.94359375 188.3734375 111.3671875 187.921875 C100.01704991 178.94395266 89.13825124 169.65019403 79.0625 159.25 C76.80305973 156.97325927 74.54457656 154.7046165 72.2109375 152.50390625 C63.13187329 143.84479875 55.86437284 133.5080616 48.625 123.3125 C48.1290332 122.61519775 47.63306641 121.91789551 47.12207031 121.19946289 C39.09197351 109.75314914 39.09197351 109.75314914 39 105.0625 C40.55257589 100.95274028 43.21497697 99.17376152 47.0625 97.25 C57.31122567 96.25818784 65.37930398 99.78324186 73.23510742 106.23461914 C79.87910858 111.93932452 86.04811224 118.12240496 92.18359375 124.36328125 C94.95954845 127.17331876 97.85610835 129.78484142 100.875 132.33203125 C102.65690419 133.89437938 104.36201358 135.48832025 106.0625 137.13671875 C116.50657232 147.20843983 127.9378285 155.23084756 140.03466797 163.18505859 C150.84549633 170.30073084 160.59221676 178.42712881 170.0625 187.25 C170.86300781 187.98476563 171.66351563 188.71953125 172.48828125 189.4765625 C196.09414293 211.99060602 210.57928412 242.82646421 213.0625 275.25 C213.15152588 276.41120361 213.24055176 277.57240723 213.33227539 278.76879883 C214.18958984 290.94975365 214.17797635 303.10694822 214.125 315.3125 C214.11996926 317.3548166 214.11540917 319.39713441 214.11132812 321.43945312 C214.10046031 326.37633287 214.08328471 331.31315246 214.0625 336.25 C205.48813453 331.76122336 197.05256093 327.18808348 188.875 322 C187.06459281 320.86462359 185.25337506 319.73053877 183.44140625 318.59765625 C182.54309082 318.03578613 181.64477539 317.47391602 180.71923828 316.89501953 C176.61606787 314.35438709 172.46331268 311.89919391 168.3125 309.4375 C124.68173705 283.44786701 83.05786985 254.1269199 46.0625 219.25 C45.38703125 218.61707031 44.7115625 217.98414063 44.015625 217.33203125 C39.40278388 212.8778888 35.37715235 207.96973828 31.40478516 202.94287109 C30.45977892 201.75104256 29.50832428 200.5643128 28.55224609 199.38134766 C2.23903142 166.76835025 -9.22261604 129.04454408 -9.0625 87.375 C-9.05995209 86.69821198 -9.05740417 86.02142395 -9.05477905 85.3241272 C-9.03778791 81.31870589 -9.01072148 77.31343541 -8.97900391 73.30810547 C-8.9444704 68.76805621 -8.92733357 64.22815238 -8.91552734 59.68798828 C-8.89866643 53.40015899 -8.86001337 47.11275973 -8.8021965 40.82517242 C-8.77008689 37.27930391 -8.74633444 33.73382645 -8.74249268 30.18780518 C-8.73747204 26.15981576 -8.69245844 22.13317692 -8.64453125 18.10546875 C-8.64845383 16.88287857 -8.6523764 15.66028839 -8.65641785 14.40065002 C-8.49480674 5.0801368 -8.49480674 5.0801368 -5.5769043 1.9621582 C-2.9375 0.25 -2.9375 0.25 0 0 Z " fill="#4A9BDA" transform="translate(121.9375,172.75)"/>
<path d="M0 0 C5.1967451 1.66794914 10.45445504 3.10805782 15.71630859 4.5546875 C33.78103129 9.54396195 51.77797587 14.76277324 69.76364136 20.02883911 C92.05970588 26.55950188 92.05970588 26.55950188 114.42382812 32.85205078 C118.57485516 33.99662173 122.70978954 35.16683148 126.82177734 36.4453125 C133.48550449 38.51171389 139.86876901 40.21824981 146.84130859 40.9921875 C160.37865274 42.55861055 171.15822985 47.82108676 179.90380859 58.3046875 C187.87299268 69.38741327 188.63726131 80.84767135 186.61865234 94.09375 C184.97732843 100.44282334 181.52728146 106.04683835 176.52514648 110.3347168 C174.72703961 112.41327078 174.69937109 113.48441772 174.64990234 116.203125 C174.62347656 117.03714844 174.59705078 117.87117188 174.56982422 118.73046875 C174.55628906 119.60058594 174.54275391 120.47070312 174.52880859 121.3671875 C174.22865464 135.70787624 171.217147 149.02208664 167.63787842 162.84115601 C163.33153592 179.49309892 159.41118494 196.16736432 156.11010742 213.04760742 C155.9779332 213.71928955 155.84575897 214.39097168 155.70957947 215.08300781 C155.35912674 216.87299415 155.01571039 218.66435414 154.67285156 220.45581055 C154.09130859 222.9921875 154.09130859 222.9921875 153.09130859 223.9921875 C150.82561623 224.32141625 148.55317574 224.60449464 146.27880859 224.8671875 C140.22910736 225.60263853 134.45970894 226.76339515 128.57958984 228.40625 C126.09130859 228.9921875 126.09130859 228.9921875 122.09130859 228.9921875 C123.45513037 222.16612033 125.46257573 215.8377796 127.84130859 209.3046875 C135.26175161 188.20807767 139.3910394 167.91149536 141.70068359 145.72900391 C142.13469227 141.57716842 142.60208031 137.429799 143.07470703 133.28222656 C143.42549872 130.18677904 143.76019993 127.08979622 144.09130859 123.9921875 C143.24568359 123.89421875 142.40005859 123.79625 141.52880859 123.6953125 C129.09039352 122.05570324 121.71938663 118.26953562 113.09130859 108.9921875 C110.8096017 105.78559118 108.88138004 102.4937124 107.09130859 98.9921875 C106.73037109 98.35925781 106.36943359 97.72632813 105.99755859 97.07421875 C102.61105741 89.29402422 102.76994169 78.30280052 105.20849609 70.34765625 C106.40509883 67.49811923 107.66275766 64.73194412 109.09130859 61.9921875 C107.80482422 61.72148438 106.51833984 61.45078125 105.19287109 61.171875 C100.20183328 60.06210536 95.34832624 58.62790021 90.46630859 57.1171875 C82.73964527 54.76380246 74.99671854 52.58571775 67.18212891 50.54150391 C55.33440941 47.42877984 43.54383633 44.17752352 31.84130859 40.5546875 C22.51087507 37.66832881 13.12685578 35.0524993 3.68261719 32.56469727 C-1.55144934 31.1824032 -6.76028606 29.75878828 -11.93994141 28.18359375 C-12.88595215 27.8987915 -13.83196289 27.61398926 -14.80664062 27.32055664 C-16.56229734 26.78725823 -18.31433014 26.24180106 -20.06152344 25.68139648 C-28.94740168 22.99854129 -36.14590332 25.16106617 -44.78369141 27.7421875 C-46.65980919 28.29099502 -48.53611439 28.83916219 -50.41259766 29.38671875 C-51.34217285 29.6595166 -52.27174805 29.93231445 -53.22949219 30.21337891 C-57.04967707 31.32385729 -60.8844197 32.37827081 -64.72119141 33.4296875 C-70.68084527 35.0695115 -76.61635231 36.78095887 -82.54492188 38.52978516 C-92.47433758 41.45823981 -102.42705937 44.21432856 -112.45410156 46.78833008 C-121.4233123 49.09970387 -130.32237561 51.63281395 -139.21704102 54.21411133 C-142.32320848 55.11201207 -145.43221176 55.99969929 -148.54150391 56.88671875 C-155.60317578 58.90283777 -162.66099218 60.9319133 -169.71508789 62.97436523 C-171.06122892 63.36377466 -172.40758623 63.75243713 -173.75415039 64.14038086 C-177.00815676 65.0779892 -180.25851385 66.02483925 -183.50488281 66.98876953 C-185.55700897 67.59372137 -187.6152702 68.17905851 -189.68359375 68.72607422 C-190.46299316 68.94666504 -191.24239258 69.16725586 -192.04541016 69.39453125 C-192.68567139 69.56331787 -193.32593262 69.73210449 -193.9855957 69.90600586 C-197.09262653 71.66088464 -199.20306404 73.90495771 -200.90869141 76.9921875 C-201.59117506 80.04714833 -201.56333236 82.99330362 -201.50244141 86.11328125 C-201.50370529 86.99778961 -201.50496918 87.88229797 -201.50627136 88.79360962 C-201.50107421 91.6732064 -201.45691045 94.55051306 -201.40869141 97.4296875 C-201.39115112 99.42309249 -201.37398258 101.41650078 -201.35717773 103.40991211 C-201.0918186 125.44679739 -199.2112135 147.33153248 -195.26171875 169.03076172 C-194.93076088 170.86956913 -194.63146701 172.71399619 -194.33447266 174.55859375 C-191.40396315 191.26436449 -185.74245431 207.72515934 -179.72119141 223.55078125 C-178.90869141 225.9921875 -178.90869141 225.9921875 -178.90869141 228.9921875 C-185.41044432 228.10600884 -191.87536043 227.01647988 -198.34619141 225.9296875 C-199.45929688 225.74341797 -200.57240234 225.55714844 -201.71923828 225.36523438 C-204.4491807 224.90829122 -207.17899341 224.45058818 -209.90869141 223.9921875 C-212.79739053 212.16662223 -215.65989003 200.34447243 -218.15869141 188.4296875 C-219.73890144 180.91086903 -221.52235962 173.45470638 -223.40869141 166.0078125 C-223.63288757 165.12138565 -223.85708374 164.2349588 -224.08807373 163.32167053 C-225.22050106 158.85332242 -226.36323171 154.38789215 -227.51904297 149.92553711 C-231.04394443 136.21075845 -232.07403541 123.69570906 -232.0390625 109.56396484 C-232.0337613 107.0256537 -232.03900154 104.4875241 -232.04541016 101.94921875 C-232.04978491 93.66564087 -231.91943038 85.39904591 -231.50634766 77.125 C-231.47336578 76.39506836 -231.44038391 75.66513672 -231.40640259 74.91308594 C-230.86753183 65.42119308 -227.74911781 56.7465708 -220.90869141 49.9921875 C-210.69781157 41.5739234 -197.90931949 38.88507507 -185.33056641 35.859375 C-180.85041999 34.72399543 -176.41304878 33.45565617 -171.97119141 32.1796875 C-171.06908936 31.9206665 -170.1669873 31.66164551 -169.23754883 31.39477539 C-165.58276799 30.34314417 -161.92901837 29.28800851 -158.27636719 28.22900391 C-147.16221364 25.00760149 -136.02871172 21.92193685 -124.80957031 19.08398438 C-120.66574166 18.02522837 -116.57974676 16.92076266 -112.53369141 15.53125 C-106.82395556 13.57382505 -100.99317681 12.09007839 -95.15869141 10.5546875 C-92.81967807 9.93276079 -90.48112835 9.30908761 -88.14306641 8.68359375 C-87.10375977 8.40717041 -86.06445312 8.13074707 -84.99365234 7.84594727 C-81.77730308 6.95582592 -78.59437816 5.98622653 -75.40869141 4.9921875 C-71.15911395 3.66725563 -66.90276048 2.42113393 -62.60400391 1.265625 C-61.44578125 0.95367187 -60.28755859 0.64171875 -59.09423828 0.3203125 C-54.62644257 -0.8756745 -50.15768299 -2.06797952 -45.68701172 -3.25317383 C-43.46128425 -3.85771896 -41.26056775 -4.50445585 -39.05712891 -5.18359375 C-25.31263865 -8.78171713 -12.98349276 -4.29660559 0 0 Z " fill="#4591D5" transform="translate(371.90869140625,33.0078125)"/>
<path d="M0 0 C5.84409629 4.58019451 10.28961995 10.12254525 11.37890625 17.6015625 C11.72631374 25.55831468 9.57074526 32.05206977 5.25 38.6875 C3.38547237 40.60382007 1.50939844 42.29955621 -0.52148438 44.02929688 C-5.54686698 48.40772455 -10.21744398 53.11043479 -14.90625 57.84375 C-16.31862932 59.2619165 -17.73101161 60.68008007 -19.14356232 62.09807587 C-21.59787501 64.56323132 -24.04884533 67.03170509 -26.5 69.5 C-29.42937203 72.44985631 -32.35936285 75.39907839 -35.29333496 78.34436035 C-37.11220613 80.17068429 -38.92882652 81.99925361 -40.74279785 83.83044434 C-45.05743998 88.16216591 -49.43840367 92.31676832 -54.07531738 96.3001709 C-57.51451687 99.3375815 -60.71404 102.61204715 -63.9375 105.875 C-64.66187256 106.60315918 -65.38624512 107.33131836 -66.13256836 108.08154297 C-68.42418303 110.38525646 -70.71250652 112.69219474 -73 115 C-76.01785081 118.04464779 -79.03913416 121.08582967 -82.0625 124.125 C-82.73982178 124.81062012 -83.41714355 125.49624023 -84.11499023 126.20263672 C-88.00953834 130.11684699 -92.00758645 133.83496154 -96.2093811 137.41830444 C-98.54908685 139.48502125 -100.67521094 141.71912456 -102.81884766 143.98535156 C-110.1653284 151.72601122 -117.93513926 157.95872463 -129.0625 158.375 C-140.12961239 158.21481811 -147.52073006 151.54222676 -155 144 C-156.87371946 141.96223895 -158.69114871 139.8932343 -160.48046875 137.78125 C-163.23696551 134.54998387 -166.14409866 131.66332354 -169.5 129.0625 C-171.87257841 127.10512281 -173.64526016 125.02207271 -175.55859375 122.62890625 C-177.2020412 120.77167702 -178.98189284 119.22629874 -180.875 117.625 C-183.67584657 115.24375591 -186.12652693 112.80698414 -188.5 110 C-190.81975062 107.25943294 -193.19384547 104.87829418 -195.9375 102.5625 C-203.43783175 96.15657463 -210.26867875 89.66482459 -211.37890625 79.546875 C-211.72221933 72.2131233 -211.51679479 66.7263655 -206.8515625 60.8671875 C-201.03303267 54.99955615 -195.30670086 50.73519749 -186.875 50.5625 C-185.29332031 50.50255859 -185.29332031 50.50255859 -183.6796875 50.44140625 C-173.70566767 51.95550905 -167.06299647 58.23591273 -160.2734375 65.23828125 C-159.39974518 66.11904831 -158.52605286 66.99981537 -157.62588501 67.90727234 C-154.86353075 70.69740645 -152.11916651 73.50448765 -149.375 76.3125 C-147.49608018 78.2193727 -145.61316889 80.12224414 -143.73046875 82.02539062 C-139.14020654 86.6705047 -134.56455118 91.32962572 -130 96 C-126.08269381 92.69799612 -122.25459165 89.37965646 -118.66015625 85.72265625 C-117.90669922 84.96146484 -117.15324219 84.20027344 -116.37695312 83.41601562 C-114.83785767 81.85094387 -113.298795 80.28583987 -111.75976562 78.72070312 C-110.62764648 77.57698242 -110.62764648 77.57698242 -109.47265625 76.41015625 C-108.80500244 75.73090088 -108.13734863 75.05164551 -107.44946289 74.35180664 C-105.40087139 72.38488927 -103.31567249 70.52248464 -101.16845703 68.66625977 C-97.22521204 65.23966466 -93.50894218 61.63826797 -89.83203125 57.9296875 C-89.18932785 57.28556915 -88.54662445 56.64145081 -87.88444519 55.97781372 C-85.85807085 53.94590995 -83.83521951 51.91054143 -81.8125 49.875 C-80.44619838 48.50367223 -79.0796637 47.13257663 -77.71289062 45.76171875 C-75.20534431 43.24605987 -72.69913947 40.72908176 -70.19458008 38.21044922 C-69.65145172 37.6669281 -69.10832336 37.12340698 -68.54873657 36.56341553 C-67.53563311 35.54070985 -66.53187785 34.50863649 -65.53890991 33.46636963 C-64.39491817 32.27561134 -63.20180539 31.13238078 -62 30 C-61.34 30 -60.68 30 -60 30 C-59.67 29.01 -59.34 28.02 -59 27 C-57.44897461 25.47680664 -57.44897461 25.47680664 -55.46484375 23.84765625 C-52.44041164 21.28271683 -49.58738778 18.64596948 -46.81640625 15.80859375 C-46.11580078 15.09123047 -45.41519531 14.37386719 -44.69335938 13.63476562 C-43.27272225 12.16985567 -41.8560456 10.70109453 -40.44335938 9.22851562 C-29.29818157 -2.14181729 -15.1330843 -9.86560688 0 0 Z " fill="#3C7DC3" transform="translate(443,159)"/>
<path d="M0 0 C0.12368591 3.93245085 0.21437336 7.86414798 0.2746582 11.7980957 C0.31214374 13.79353555 0.37567535 15.78843052 0.43945312 17.78320312 C0.45556641 19.03681641 0.47167969 20.29042969 0.48828125 21.58203125 C0.51446533 22.73936768 0.54064941 23.8967041 0.56762695 25.08911133 C0 28 0 28 -2.25244141 29.81176758 C-4.65238786 30.84966871 -6.93174785 31.73534526 -9.44921875 32.4296875 C-10.28751221 32.66486084 -11.12580566 32.90003418 -11.98950195 33.14233398 C-13.32501099 33.50500366 -13.32501099 33.50500366 -14.6875 33.875 C-15.62231201 34.13547119 -16.55712402 34.39594238 -17.52026367 34.66430664 C-20.34493918 35.44996369 -23.17212379 36.22595368 -26 37 C-28.22823496 37.61463766 -30.45601128 38.23090265 -32.68359375 38.84790039 C-34.11821416 39.24521785 -35.55311649 39.64151857 -36.98828125 40.03686523 C-42.22017376 41.48465224 -47.42957021 43.00172222 -52.63623047 44.53759766 C-62.56564618 47.46605231 -72.51836796 50.22214106 -82.54541016 52.79614258 C-91.51462089 55.10751637 -100.41368421 57.64062645 -109.30834961 60.22192383 C-112.41451707 61.11982457 -115.52352035 62.00751179 -118.6328125 62.89453125 C-125.69448437 64.91065027 -132.75230078 66.9397258 -139.80639648 68.98217773 C-141.15253751 69.37158716 -142.49889483 69.76024963 -143.84545898 70.14819336 C-147.09946536 71.0858017 -150.34982244 72.03265175 -153.59619141 72.99658203 C-155.64831756 73.60153387 -157.7065788 74.18687101 -159.77490234 74.73388672 C-160.55430176 74.95447754 -161.33370117 75.17506836 -162.13671875 75.40234375 C-162.77697998 75.57113037 -163.41724121 75.73991699 -164.0769043 75.91381836 C-167.18393513 77.66869714 -169.29437264 79.91277021 -171 83 C-171.68248366 86.05496083 -171.65464095 89.00111612 -171.59375 92.12109375 C-171.59501389 93.00560211 -171.59627777 93.89011047 -171.59757996 94.80142212 C-171.59238281 97.6810189 -171.54821905 100.55832556 -171.5 103.4375 C-171.48245972 105.43090499 -171.46529117 107.42431328 -171.44848633 109.41772461 C-171.18312719 131.45460989 -169.30252209 153.33934498 -165.35302734 175.03857422 C-165.02206947 176.87738163 -164.7227756 178.72180869 -164.42578125 180.56640625 C-161.49527175 197.27217699 -155.8337629 213.73297184 -149.8125 229.55859375 C-149 232 -149 232 -149 235 C-155.50175291 234.11382134 -161.96666903 233.02429238 -168.4375 231.9375 C-169.55060547 231.75123047 -170.66371094 231.56496094 -171.81054688 231.37304688 C-174.5404893 230.91610372 -177.27030201 230.45840068 -180 230 C-182.88869912 218.17443473 -185.75119863 206.35228493 -188.25 194.4375 C-189.83021003 186.91868153 -191.61366821 179.46251888 -193.5 172.015625 C-193.72419617 171.12919815 -193.94839233 170.2427713 -194.17938232 169.32948303 C-195.31180965 164.86113492 -196.4545403 160.39570465 -197.61035156 155.93334961 C-201.13525302 142.21857095 -202.165344 129.70352156 -202.13037109 115.57177734 C-202.12506989 113.0334662 -202.13031013 110.4953366 -202.13671875 107.95703125 C-202.14109351 99.67345337 -202.01073897 91.40685841 -201.59765625 83.1328125 C-201.56467438 82.40288086 -201.5316925 81.67294922 -201.49771118 80.92089844 C-200.95884042 71.42900558 -197.8404264 62.7543833 -191 56 C-180.78912016 47.5817359 -168.00062809 44.89288757 -155.421875 41.8671875 C-150.94172858 40.73180793 -146.50435737 39.46346867 -142.0625 38.1875 C-141.16039795 37.928479 -140.2582959 37.66945801 -139.32885742 37.40258789 C-135.67407659 36.35095667 -132.02032696 35.29582101 -128.36767578 34.23681641 C-117.25352224 31.01541399 -106.12002031 27.92974935 -94.90087891 25.09179688 C-90.75705025 24.03304087 -86.67105536 22.92857516 -82.625 21.5390625 C-76.91526416 19.58163755 -71.0844854 18.09789089 -65.25 16.5625 C-62.91098666 15.94057329 -60.57243694 15.31690011 -58.234375 14.69140625 C-57.19506836 14.41498291 -56.15576172 14.13855957 -55.08496094 13.85375977 C-51.86861168 12.96363842 -48.68568675 11.99403903 -45.5 11 C-41.25042254 9.67506813 -36.99406908 8.42894643 -32.6953125 7.2734375 C-31.53708984 6.96148437 -30.37886719 6.64953125 -29.18554688 6.328125 C-24.71914675 5.13251158 -20.25191212 3.94011097 -15.78222656 2.75683594 C-13.53193725 2.14470037 -11.31135524 1.48366628 -9.0859375 0.7890625 C-5.91832926 -0.0208829 -3.25252904 -0.05714132 0 0 Z " fill="#4FA7E2" transform="translate(342,27)"/>
<path d="M0 0 C22 0 22 0 27.5625 5.5 C28.84790039 7.39648438 28.84790039 7.39648438 29.72265625 9.09375 C32.17403727 13.4793805 35.27298303 17.16661651 38.5 21 C43.25106348 26.79072415 47.84746958 32.67458363 52.38671875 38.6328125 C55.96930992 43.29088211 59.70890657 47.8240474 63.44726562 52.35742188 C63.96611328 52.98970703 64.48496094 53.62199219 65.01953125 54.2734375 C65.47432861 54.82435059 65.92912598 55.37526367 66.39770508 55.94287109 C68.69346902 58.89031997 70.82847148 61.95986007 73 65 C73.33 43.55 73.66 22.1 74 0 C81.59 0 89.18 0 97 0 C97 34.65 97 69.3 97 105 C76 105 76 105 71.23828125 101.73828125 C69.68481445 99.61645508 69.68481445 99.61645508 68.3125 97.3125 C67.76746826 96.53737061 67.22243652 95.76224121 66.66088867 94.96362305 C65.56664542 93.40227964 64.49899882 91.82190301 63.4609375 90.22265625 C61.41583698 87.11126 59.12339333 84.22790763 56.8125 81.3125 C56.02101563 80.27351562 55.22953125 79.23453125 54.4140625 78.1640625 C47.22754892 68.74484567 39.82624025 59.50030563 32.3269043 50.32885742 C31.80652588 49.69181885 31.28614746 49.05478027 30.75 48.3984375 C30.29109375 47.83817871 29.8321875 47.27791992 29.359375 46.70068359 C27.86578859 44.83209112 26.4352971 42.91372946 25 41 C24.67 62.12 24.34 83.24 24 105 C16.08 105 8.16 105 0 105 C0 70.35 0 35.7 0 0 Z " fill="#3A70B2" transform="translate(529,592)"/>
<path d="M0 0 C1.5631897 0.00785522 1.5631897 0.00785522 3.15795898 0.01586914 C4.28266602 0.0190918 5.40737305 0.02231445 6.56616211 0.02563477 C7.75016602 0.03401367 8.93416992 0.04239258 10.15405273 0.05102539 C11.34192383 0.05553711 12.52979492 0.06004883 13.75366211 0.06469727 C16.69967499 0.07652864 19.64558954 0.09301252 22.59155273 0.11352539 C26.35137937 7.36043971 29.68068007 14.75384935 32.89453125 22.25708008 C34.32144208 25.58809258 35.75803329 28.91493339 37.19311523 32.24243164 C37.62645172 33.24827805 37.62645172 33.24827805 38.06854248 34.27444458 C40.71028727 40.40190003 43.39568449 46.50970097 46.09155273 52.61352539 C49.9823791 61.44326317 53.8672632 70.27560687 57.72216797 79.12109375 C58.29321482 80.42980291 58.86560191 81.73792824 59.43945312 83.04541016 C60.24388509 84.8789824 61.04279603 86.71497373 61.84155273 88.55102539 C62.52991211 90.1269043 62.52991211 90.1269043 63.23217773 91.73461914 C64.86498441 95.79317597 66.20815326 99.96332696 67.59155273 104.11352539 C59.34155273 104.11352539 51.09155273 104.11352539 42.59155273 104.11352539 C41.27155273 100.85477539 39.95155273 97.59602539 38.59155273 94.23852539 C38.17389648 93.21259277 37.75624023 92.18666016 37.32592773 91.12963867 C36.83866211 89.91896729 36.83866211 89.91896729 36.34155273 88.68383789 C35.83881836 87.4427124 35.83881836 87.4427124 35.32592773 86.17651367 C34.59155273 84.11352539 34.59155273 84.11352539 34.59155273 82.11352539 C18.75155273 82.44352539 2.91155273 82.77352539 -13.40844727 83.11352539 C-16.37844727 90.04352539 -19.34844727 96.97352539 -22.40844727 104.11352539 C-30.32844727 104.11352539 -38.24844727 104.11352539 -46.40844727 104.11352539 C-45.6699223 100.42090055 -45.00385745 97.84115673 -43.55761719 94.4921875 C-42.98454079 93.15531136 -42.98454079 93.15531136 -42.39988708 91.79142761 C-41.98376663 90.83424332 -41.56764618 89.87705902 -41.13891602 88.89086914 C-40.49026329 87.38300591 -40.49026329 87.38300591 -39.82850647 85.84468079 C-38.42213262 82.57817746 -37.00906863 79.31461459 -35.59594727 76.05102539 C-34.62834775 73.80676489 -33.6612265 71.56229813 -32.69458008 69.31762695 C-30.79271883 64.90274239 -28.88854732 60.4888674 -26.98217773 56.07592773 C-23.85920885 48.8448771 -20.7568772 41.60511902 -17.65844727 34.36352539 C-16.75098558 32.2476012 -15.84343755 30.13171404 -14.93579102 28.01586914 C-13.19218565 23.94835318 -11.45625123 19.87765844 -9.72485352 15.80493164 C-9.30107422 14.81009766 -8.87729492 13.81526367 -8.44067383 12.7902832 C-7.65284128 10.94023288 -6.86689846 9.08937616 -6.08325195 7.23754883 C-5.5732666 6.0411377 -5.5732666 6.0411377 -5.05297852 4.82055664 C-4.7575415 4.12422119 -4.46210449 3.42788574 -4.15771484 2.71044922 C-2.99432838 0.23090837 -2.85731575 0.13468341 0 0 Z " fill="#28579F" transform="translate(224.408447265625,591.886474609375)"/>
<path d="M0 0 C7.59 0 15.18 0 23 0 C23 14.19 23 28.38 23 43 C38.84 43 54.68 43 71 43 C71 28.81 71 14.62 71 0 C78.59 0 86.18 0 94 0 C94 34.32 94 68.64 94 104 C86.41 104 78.82 104 71 104 C71 90.14 71 76.28 71 62 C55.16 62 39.32 62 23 62 C23 75.86 23 89.72 23 104 C15.41 104 7.82 104 0 104 C0 69.68 0 35.36 0 0 Z " fill="#204B97" transform="translate(62,592)"/>
<path d="M0 0 C26.07 0 52.14 0 79 0 C79 6.27 79 12.54 79 19 C60.52 19 42.04 19 23 19 C23 26.92 23 34.84 23 43 C38.84 43 54.68 43 71 43 C71 49.27 71 55.54 71 62 C55.16 62 39.32 62 23 62 C23 69.92 23 77.84 23 86 C41.81 86 60.62 86 80 86 C80 91.94 80 97.88 80 104 C53.6 104 27.2 104 0 104 C0 69.68 0 35.36 0 0 Z " fill="#356AAE" transform="translate(422,592)"/>
<path d="M0 0 C8.25 0 16.5 0 25 0 C28.5137443 7.37886304 31.75740231 14.77431162 34.75 22.375 C38.0773107 30.81522431 41.62404947 39.14216241 45.26611328 47.45092773 C49.27267402 56.59444392 53.15213398 65.78876766 57 75 C59.41043569 72.03361108 60.91599618 69.1711192 62.35546875 65.63671875 C62.8055127 64.54020996 63.25555664 63.44370117 63.71923828 62.31396484 C64.20376465 61.11723145 64.68829102 59.92049805 65.1875 58.6875 C65.70237147 57.42895737 66.21784916 56.1706626 66.73388672 54.91259766 C68.17405012 51.39762258 69.60721103 47.87983157 71.03887939 44.36138916 C73.86853848 37.40916459 76.7063708 30.46028533 79.54776001 23.5128479 C80.61585022 20.89740514 81.67955219 18.28020751 82.74291992 15.6628418 C83.40397591 14.04339244 84.0651829 12.42400472 84.7265625 10.8046875 C85.02815781 10.05906052 85.32975311 9.31343353 85.64048767 8.54521179 C86.89979557 5.47153045 88.15060557 2.77409165 90 0 C92.43017578 -0.34057617 92.43017578 -0.34057617 95.4453125 -0.29296875 C96.52167969 -0.28330078 97.59804688 -0.27363281 98.70703125 -0.26367188 C100.39892578 -0.2259668 100.39892578 -0.2259668 102.125 -0.1875 C103.26066406 -0.17396484 104.39632812 -0.16042969 105.56640625 -0.14648438 C108.37807387 -0.11104319 111.18880417 -0.06163517 114 0 C112.30929748 5.50608468 110.01295642 10.67921227 107.6875 15.9375 C103.70171655 25.02587409 99.82008582 34.15337216 96 43.3125 C90.49137977 56.51128786 84.88567137 69.6674922 79.25 82.8125 C78.84587891 83.75566071 78.44175781 84.69882141 78.02539062 85.67056274 C76.87713996 88.34974599 75.72788322 91.02849467 74.578125 93.70703125 C74.23082336 94.51700562 73.88352173 95.32697998 73.5256958 96.16149902 C71.11673325 101.76653349 71.11673325 101.76653349 70 104 C61.09 104 52.18 104 43 104 C42.28457031 102.25460937 41.56914062 100.50921875 40.83203125 98.7109375 C35.61904179 86.03119589 30.34550368 73.3839218 24.875 60.8125 C24.35824707 59.62406494 23.84149414 58.43562988 23.30908203 57.21118164 C22.47942233 55.30334875 21.64971556 53.39553639 20.81988525 51.48777771 C17.00958644 42.72602227 13.20893943 33.96015812 9.42755127 25.18588257 C8.60352796 23.27649843 7.77749042 21.36798225 6.94940186 19.46035767 C5.78801801 16.78432277 4.63347505 14.10543426 3.48046875 11.42578125 C3.1280159 10.61782104 2.77556305 9.80986084 2.41242981 8.97741699 C0 3.34205287 0 3.34205287 0 0 Z " fill="#3366AB" transform="translate(288,592)"/>
<path d="M0 0 C0.33 0 0.66 0 1 0 C1.05514049 2.72945419 1.09420498 5.45774176 1.125 8.1875 C1.14175781 8.93708984 1.15851562 9.68667969 1.17578125 10.45898438 C1.28618218 23.65189509 -2.17191255 36.17947512 -5.45343018 48.84896851 C-9.75977268 65.50091142 -13.68012366 82.17517682 -16.98120117 99.05541992 C-17.1133754 99.72710205 -17.24554962 100.39878418 -17.38172913 101.09082031 C-17.73218186 102.88080665 -18.0755982 104.67216664 -18.41845703 106.46362305 C-19 109 -19 109 -20 110 C-22.26569237 110.32922875 -24.53813285 110.61230714 -26.8125 110.875 C-32.86220124 111.61045103 -38.63159966 112.77120765 -44.51171875 114.4140625 C-47 115 -47 115 -51 115 C-49.63617822 108.17393283 -47.62873286 101.8455921 -45.25 95.3125 C-37.82955698 74.21589017 -33.70026919 53.91930786 -31.390625 31.73681641 C-30.95661633 27.58498092 -30.48922828 23.4376115 -30.01660156 19.29003906 C-29.66580988 16.19459154 -29.33110867 13.09760872 -29 10 C-27.98421875 9.85304687 -26.9684375 9.70609375 -25.921875 9.5546875 C-11.85847151 7.36953718 -11.85847151 7.36953718 0 0 Z " fill="#3373B9" transform="translate(545,147)"/>
<path d="M0 0 C4.62 0 9.24 0 14 0 C14 7.26 14 14.52 14 22 C21.19522782 21.9604134 21.19522782 21.9604134 28.39038086 21.90991211 C29.28120361 21.90741455 30.17202637 21.90491699 31.08984375 21.90234375 C32.46450806 21.89448853 32.46450806 21.89448853 33.86694336 21.88647461 C36 22 36 22 37 23 C37.09873816 24.99799572 37.12971799 26.99957158 37.125 29 C37.12886719 30.6396875 37.12886719 30.6396875 37.1328125 32.3125 C37 35 37 35 36 36 C34.36527118 36.08700342 32.72685945 36.10701063 31.08984375 36.09765625 C30.199021 36.09515869 29.30819824 36.09266113 28.39038086 36.09008789 C27.25093018 36.08098389 26.11147949 36.07187988 24.9375 36.0625 C21.328125 36.041875 17.71875 36.02125 14 36 C14 43.26 14 50.52 14 58 C9.38 58 4.76 58 0 58 C0 50.74 0 43.48 0 36 C-7.19522782 36.0395866 -7.19522782 36.0395866 -14.39038086 36.09008789 C-15.28120361 36.09258545 -16.17202637 36.09508301 -17.08984375 36.09765625 C-18.46450806 36.10551147 -18.46450806 36.10551147 -19.86694336 36.11352539 C-22 36 -22 36 -23 35 C-23.09873816 33.00200428 -23.12971799 31.00042842 -23.125 29 C-23.12757813 27.906875 -23.13015625 26.81375 -23.1328125 25.6875 C-23 23 -23 23 -22 22 C-20.36527118 21.91299658 -18.72685945 21.89298937 -17.08984375 21.90234375 C-16.199021 21.90484131 -15.30819824 21.90733887 -14.39038086 21.90991211 C-13.25093018 21.91901611 -12.11147949 21.92812012 -10.9375 21.9375 C-5.5234375 21.9684375 -5.5234375 21.9684375 0 22 C0 14.74 0 7.48 0 0 Z " fill="#FBFCFD" transform="translate(511,86)"/>
<path d="M0 0 C2.93071449 3.47748545 4.61036315 7.35178137 6.35546875 11.50390625 C6.66196854 12.22360092 6.96846832 12.94329559 7.28425598 13.68479919 C7.92813621 15.20074552 8.56925273 16.71786833 9.20776367 18.23608398 C10.18700593 20.56132682 11.17783228 22.88138603 12.16992188 25.20117188 C12.79497083 26.67678702 13.41934329 28.15268894 14.04296875 29.62890625 C14.3397905 30.32270889 14.63661224 31.01651154 14.94242859 31.7313385 C16.16405591 34.65461965 17 36.79777691 17 40 C6.11 40 -4.78 40 -16 40 C-14.18364459 33.94548197 -12.50791592 28.46565561 -10.1171875 22.71484375 C-9.85745148 22.0876796 -9.59771545 21.46051544 -9.33010864 20.81434631 C-8.78961231 19.51206576 -8.24679346 18.21074673 -7.70166016 16.91040039 C-6.86432696 14.91202782 -6.0351738 12.91039961 -5.20703125 10.90820312 C-1.14697 1.14697 -1.14697 1.14697 0 0 Z " fill="#F8F9FB" transform="translate(234,616)"/>
<path d="M0 0 C0.556875 0.268125 1.11375 0.53625 1.6875 0.8125 C0.71425781 1.23144531 -0.25898437 1.65039062 -1.26171875 2.08203125 C-3.61409181 3.65604049 -4.22837184 4.4548298 -4.88525391 7.24755859 C-5.09606409 10.3427543 -5.14554501 13.39770383 -5.125 16.5 C-5.14955796 18.60810721 -5.17686025 20.7161844 -5.20703125 22.82421875 C-5.21557129 23.83403809 -5.22411133 24.84385742 -5.23291016 25.88427734 C-5.34223618 29.90653608 -5.79048576 33.82431117 -6.3125 37.8125 C-6.6425 37.8125 -6.9725 37.8125 -7.3125 37.8125 C-7.43644421 33.20444479 -7.52699675 28.59736719 -7.5871582 23.98803711 C-7.61224547 22.42145886 -7.64632415 20.85499701 -7.68969727 19.28881836 C-7.75061226 17.03209691 -7.77876499 14.77692706 -7.80078125 12.51953125 C-7.82658768 11.82350296 -7.8523941 11.12747467 -7.87898254 10.41035461 C-7.88122253 6.49386989 -7.40062836 4.92306399 -4.92651367 1.8190918 C-2.3125 -0.1875 -2.3125 -0.1875 0 0 Z " fill="#69B5E5" transform="translate(121.3125,173.1875)"/>
<path d="M0 0 C0.33 0 0.66 0 1 0 C1.21677407 5.2321895 1.41368737 10.46460187 1.59204102 15.69824219 C1.65555993 17.47937098 1.7245502 19.26031326 1.79907227 21.04101562 C1.90511241 23.59736595 1.99160304 26.15373651 2.07421875 28.7109375 C2.11157639 29.50994476 2.14893402 30.30895203 2.18742371 31.13217163 C2.2487793 33.37646484 2.2487793 33.37646484 2 37 C1.01 37.66 0.02 38.32 -1 39 C-1.02939331 34.56251426 -1.04692963 30.12505407 -1.0625 25.6875 C-1.07087891 24.44419922 -1.07925781 23.20089844 -1.08789062 21.91992188 C-1.1072306 14.55138969 -0.83903809 7.32242824 0 0 Z " fill="#3E6CAE" transform="translate(351,470)"/>
<path d="M0 0 C0 3 0 3 -2.40625 5.69921875 C-3.4299968 6.70302243 -4.4616054 7.69885649 -5.5 8.6875 C-6.02464844 9.19861328 -6.54929687 9.70972656 -7.08984375 10.23632812 C-8.38660904 11.49772708 -9.69246117 12.74977212 -11 14 C-11.99 13.67 -12.98 13.34 -14 13 C-9.38 8.71 -4.76 4.42 0 0 Z " fill="#366FB3" transform="translate(481,289)"/>
<path d="M0 0 C0.33 0.99 0.66 1.98 1 3 C-0.24034412 4.32162881 -1.49268626 5.63200453 -2.75 6.9375 C-3.44609375 7.66839844 -4.1421875 8.39929688 -4.859375 9.15234375 C-7.00599725 11.00517646 -8.23532932 11.60771565 -11 12 C-7.49102731 7.81576108 -3.91939465 3.80411834 0 0 Z " fill="#4784C5" transform="translate(373,197)"/>
<path d="M0 0 C0 3 0 3 -1.49609375 4.75390625 C-2.13675781 5.35074219 -2.77742187 5.94757813 -3.4375 6.5625 C-6.0896163 9.00289429 -6.0896163 9.00289429 -8 12 C-8.66 12 -9.32 12 -10 12 C-8.62968895 6.34746692 -4.32310587 3.4886459 0 0 Z " fill="#4995D6" transform="translate(244,213)"/>
<path d="M0 0 C0.33 0.66 0.66 1.32 1 2 C-0.98 4.31 -2.96 6.62 -5 9 C-5.66 8.34 -6.32 7.68 -7 7 C-4.69 4.69 -2.38 2.38 0 0 Z " fill="#4A87C8" transform="translate(326,243)"/>
<path d="M0 0 C0 3 0 3 -2.5 5.6875 C-3.325 6.450625 -4.15 7.21375 -5 8 C-5.99 7.67 -6.98 7.34 -8 7 C-5.36 4.69 -2.72 2.38 0 0 Z " fill="#4179BA" transform="translate(401,354)"/>
<path d="M0 0 C0 3 0 3 -1.3125 4.38671875 C-2.875 5.59114583 -4.4375 6.79557292 -6 8 C-6 5 -6 5 -4.6875 3.61328125 C-3.125 2.40885417 -1.5625 1.20442708 0 0 Z " fill="#3D77BA" transform="translate(409,347)"/>
</svg>
